# xmcd
#
# Track frame offsets:
#	150
#	12377
#	26400
#	45432
#	62202
#	77842
#	92730
#	108442
#	124225
#	141830
#	154975
#
# Disc length: 2367 seconds
#
# Revision: 0
# Processed by: cddbd v1.5.2PL0 Copyright (c) Steve Scherf et al.
# Submitted via: audiograbber 1.83.01
#
DISCID=8e093d0b
DTITLE=Parnell, Lee Roy - We all get lucky sometimes
DYEAR=1995
DGENRE=Country
TTITLE0=A little bit of you
TTITLE1=Knock yourself out
TTITLE2=Heart's desire
TTITLE3=When a woman loves a man
TTITLE4=If the house is rockin'
TTITLE5=We all get lucky sometimes
TTITLE6=Saved by the grace of your love
TTITLE7=Givin' water to a drowning man
TTITLE8=I had to let it go
TTITLE9=Squeeze me in
TTITLE10=Cat walk (Instrumental with Flaco Jimenez)
EXTD=
EXTT0=
EXTT1=
EXTT2=
EXTT3=
EXTT4=
EXTT5=
EXTT6=
EXTT7=
EXTT8=
EXTT9=
EXTT10=
PLAYORDER=
